<?xml version="1.0" encoding="utf-8"?>
<!-- Generator: Adobe Illustrator 27.0.0, SVG Export Plug-In . SVG Version: 6.00 Build 0)  -->
<svg version="1.1" id="Ebene_1" xmlns="http://www.w3.org/2000/svg" xmlns:xlink="http://www.w3.org/1999/xlink" x="0px" y="0px"
	 viewBox="0 0 85.7 50" style="enable-background:new 0 0 85.7 50;" xml:space="preserve">
<style type="text/css">
	.st0{fill:#000000;}
</style>
    <path class="st0" d="M35.4,49.6h1.7V0.7h-1.7V49.6z"/>
    <path class="st0" d="M10,16.9c0.8-1.1,2.6-4.6,8-4.6c3.8,0,5.8,1.5,6.6,2.2c2.3,2.2,2.5,5.5,2.5,7.3v15.5h-9.7V23.7 c0-0.3,0-3.5-3.3-3.5c-3.4,0-3.5,3.1-3.5,4v13.1H0.8V12.9H10V16.9"/>
    <path class="st0" d="M80.2,12.4c-1.8,0-3.3,1.5-3.3,3.3s1.5,3.3,3.3,3.3c1.7,0,2.4-1.2,2.4-1.1c0.9,2.8-4.1,17.6-10.9,17.6 c-2.2,0-2.9-1.8-2.9-4.1c0-2.7,0.8-5.5,1.8-9.2c1.1-3.7,2-7.2,2.5-9.1h-6.6c-0.9,3.2-7.3,22-12.8,22c-0.7,0-1.4-0.7-1.4-2 c0-0.7,0.6-3.3,1-4.2l2.2-7.3c0.5-1.5,1.2-3.5,1.2-5c0-2.6-1.8-4-3.9-4c-6,0-8.4,5.3-9.7,7.4l1,0.6c0.6-0.9,3.2-5.4,5-5.4 c0.3,0,0.5,0.3,0.5,1.2c0,0.6-0.4,2-0.7,3.3L46.5,27c-0.4,1.4-1.3,4-1.3,5.8c0,3.4,2.6,5.2,5,5.2c8.5,0,12.1-10.1,13.3-13 l0.1,0.1c-0.2,0.6-0.9,3.6-0.9,5.2c0,4.5,2,7.7,6.5,7.7C82,38,89,12.4,80.2,12.4"/>			
</svg>
